<svg width="36" height="36" viewBox="0 0 36 36" fill="none" xmlns="http://www.w3.org/2000/svg">
<path d="M1.74609 2.32923V4.93777C6.84289 9.80617 11.8386 15.1094 14.2441 19.3044C15.0841 20.7696 16.785 24.1692 17.5145 27.2082C15.4196 26.9824 13.197 26.2327 11.0905 24.95C11.8642 26.2184 12.7952 27.4726 13.9326 28.6099C19.5256 34.203 27.3025 35.486 31.2975 31.491C35.2926 27.4959 34.0094 19.7194 28.4162 14.1264C27.2787 12.9888 26.0247 12.0578 24.7565 11.2842C26.1776 13.6182 26.9745 16.0806 27.0925 18.3702C23.9392 17.4744 20.1752 15.7992 18.6048 14.9051C14.3724 12.4955 9.02109 7.47143 4.12096 2.3291H1.74609V2.32923ZM25.9258 19.991C29.1011 19.991 31.6962 22.4107 31.9742 25.5121C31.1592 23.9988 29.5604 22.9699 27.7211 22.9699C25.0548 22.9699 22.8931 25.1314 22.8931 27.7979C22.8931 28.162 22.9338 28.5166 23.0103 28.8577C23.1993 27.4457 24.4168 26.3461 25.8782 26.3461C27.4692 26.3461 28.7724 27.6494 28.7724 29.2404C28.7724 30.8314 27.4692 32.1346 25.8782 32.1346C25.7722 32.1346 25.6677 32.1284 25.5646 32.1171C25.5722 32.1209 25.5796 32.1251 25.5873 32.1288C22.3838 31.954 19.8521 29.3128 19.8521 26.0648C19.8521 22.703 22.5639 19.991 25.9257 19.991L25.9258 19.991Z" fill="white"/>
</svg>
